<?xml version="1.0" encoding="utf-8" ?>
<svg xmlns="http://www.w3.org/2000/svg" xmlns:xlink="http://www.w3.org/1999/xlink" width="1024" height="362">
	<path fill="#52CB4F" d="M109.042 86.5C110.15 66.096 104.623 40.9885 121.629 25.6468C127.131 20.6834 133.903 17.9418 141.186 16.8761C151.882 15.311 163.313 15.9952 174.11 16.0065L225.396 16.0382L303.593 16.0248C317.374 16.02 331.429 15.4491 345.183 16.191C356.213 16.786 366.419 20.3185 373.948 28.7241C378.527 33.8366 381.773 40.375 382.839 47.172C383.962 54.3327 383.415 62.2987 383.425 69.5536L383.436 109.053L383.449 173.733C383.447 185.654 383.89 197.73 383.195 209.623C382.634 219.215 378.258 228.707 371.025 235.107C366.203 239.343 360.425 242.344 354.187 243.853C347.386 245.451 340.13 245.052 333.188 245.044C318.455 245.027 302.181 243.942 287.699 245.52C282.588 248.988 271.308 263.044 267.461 268.386C275.171 268.494 294.239 267.278 300.451 269.416C300.732 269.857 300.937 269.987 300.826 270.527C300.543 271.904 299.538 273.042 298.585 274.029C291.195 281.684 282.668 288.64 274.877 295.939C258.059 311.692 241.286 327.657 224.029 342.925C222.856 343.777 221.951 344.264 220.53 344.575C219.172 344.078 219.225 343.858 218.565 342.632C218.438 336.892 232.584 300.247 235.499 291.971C226.889 292.502 209.924 293.634 201.94 291.888C200.492 291.571 199.655 291.327 198.841 290.077C198.29 282.507 213.407 253.451 217.166 245.421C210.193 244.534 202.837 244.981 195.804 244.987L159.792 245.029C152.536 245.037 144.663 245.564 137.572 243.837C131.43 242.341 125.565 238.961 121.027 234.583C116.248 229.972 112.396 223.847 110.891 217.34C108.468 206.869 109.554 195.215 109.345 184.517C108.706 151.836 109.625 119.167 109.042 86.5ZM234.909 64.5445C223.453 67.0856 213.426 71.143 206.877 81.5132C201.843 89.4851 199.925 100.075 202.039 109.282C203.806 116.98 208.357 123.26 215.068 127.41C219.962 130.435 225.495 132.297 231.053 133.674C242.28 136.456 266.069 137.849 269.308 151.878C270.183 155.667 269.294 160.694 267.13 163.927C264.25 168.228 258.8 170.302 253.919 171.156C246.543 172.447 237.589 171.843 231.305 167.373C226.368 163.86 224.302 158.529 222.839 152.874L197.991 153.02C197.842 162.743 201.573 171.395 208.314 178.369C215.744 186.057 224.67 189.186 234.779 191.643C234.977 195.431 233.963 205.444 236.676 207.909C239.446 210.426 245.915 209.72 249.376 209.775C252.088 209.783 255.745 210.19 257.818 208.084C260.912 204.94 259.711 196.128 260.044 191.903C272.585 188.466 284.225 183.956 291.015 172.025C295.988 163.286 297.001 153.539 294.33 143.873C292.2 136.161 287.489 130.395 280.524 126.5C267.045 118.96 232.432 119.099 227.761 102.822C226.705 99.1422 227.383 94.9592 229.294 91.6647C231.575 87.734 235.506 85.2546 239.832 84.1184C246.031 82.4904 253.875 82.8509 259.489 86.1675C264.262 88.9866 266.51 93.1634 268.556 98.1166C277.111 98.867 285.797 98.4741 294.375 98.2661C293.005 88.2081 288.515 79.5033 280.364 73.264C273.955 68.3576 266.686 66.3165 258.989 64.4341C259.333 60.2423 260.474 53.0047 257.585 49.5307C256.167 47.8257 253.687 47.1214 251.55 46.9668C248.149 46.7208 244.406 46.8805 241.006 47.1726C239.061 47.5556 237.221 47.8204 236.037 49.6066C233.67 53.1794 235.09 60.2975 234.909 64.5445Z"/>
	<path fill="#00474F" d="M674.068 65.2497C685.187 64.3259 695.713 64.986 705.143 71.5976C714.61 78.2347 720.203 88.6721 722.149 99.9095C724.54 113.713 722.34 129.522 714.138 141.123C708.361 149.376 699.496 154.947 689.554 156.574C681.205 157.969 668.346 157.27 661.191 152.298C657.996 150.077 655.544 147.039 652.412 144.866L652.134 144.677C652.241 144.977 652.33 145.261 652.402 145.572C653.118 148.644 653.154 164.455 651.735 166.739C652.045 167.205 652.304 167.703 652.42 168.257C653.168 171.823 653.473 188.967 651.764 191.888C644.05 192.059 636.322 191.931 628.606 191.897C628.692 191.728 628.769 191.554 628.841 191.378C629.704 189.295 629.44 79.603 629.043 68.6452C629.012 67.807 628.802 67.0861 628.478 66.316C636.058 65.6283 643.93 65.9905 651.547 66.0994C651.818 66.5241 652.053 66.9622 652.205 67.4451C653.128 70.3636 653.036 75.8146 651.602 78.5282C653.49 77.26 654.723 75.5836 656.419 74.1232C661.899 69.4046 667.155 67.0906 674.068 65.2497ZM679.958 138.048C685.294 137.501 689.912 134.903 693.308 130.753C698.721 124.137 699.992 115.184 699.095 106.902C698.301 99.5783 695.231 92.4469 689.356 87.7834C684.139 83.6424 678.142 82.8842 671.709 83.6561L670.956 83.7496C663.98 86.1039 659.324 89.4862 656.004 96.2502C652.112 104.178 651.632 114.703 654.492 123.037C656.425 128.667 660.081 133.388 665.484 136.03C669.769 138.126 675.27 138.954 679.958 138.048Z"/>
	<path fill="#00474F" d="M488.167 184.249C500.768 183.347 514.7 185.411 525.81 191.585C539.063 198.851 548.803 211.18 552.803 225.755C553.232 227.289 553.542 228.753 552.715 230.207C549.625 231.849 531.044 230.976 526.311 230.959C526.321 230.874 526.332 230.789 526.34 230.705C526.667 227.33 523.31 222.348 521.303 219.843C515.43 212.51 507.901 208.238 498.541 207.264C489.867 206.363 480.989 208.69 474.186 214.228C464.98 221.721 460.227 232.861 459.092 244.502C457.776 258.017 459.794 272.654 468.735 283.391C474.557 290.382 482.721 294.929 491.813 295.762C500.675 296.574 511.489 294.77 518.509 288.894C520.299 287.395 523.041 284.668 523.258 282.248C523.533 282.035 523.791 281.805 524.017 281.539C525.504 279.779 527.377 275.924 527.182 273.629C533.613 273.457 545.698 272.618 551.638 273.9C552.536 274.094 552.543 274.163 553.02 274.911C553.436 281.204 548.666 290.003 545.266 295.017C536.879 307.386 524.229 315.051 509.676 317.869C492.634 321.17 473.502 318.32 459.023 308.478C445.55 299.282 436.34 285.054 433.466 268.997C429.775 249.407 431.891 226.795 443.407 210.066C451.133 198.703 462.603 190.412 475.816 186.639C479.822 185.532 484.078 185.017 488.167 184.249Z"/>
	<path fill="#00474F" d="M607.231 217.25C619.038 216.294 633.124 216.578 643.585 222.71C650.987 227.047 655.714 234.089 657.823 242.327C658.665 245.614 659.079 249.01 659.254 252.394C659.603 259.149 660.193 313.212 658.553 315.977L635.365 315.997C635.57 315.675 635.753 315.335 635.857 314.966C636.589 312.364 636.144 307.327 634.911 304.964C634.711 306.302 633.052 307.795 632.121 308.75C625.143 315.908 614.682 318.713 604.898 318.814C595.375 318.912 585.897 316.641 578.774 310.093C576.631 308.123 574.928 305.785 572.852 303.751C572.993 302.426 569.708 292.547 569.891 287.61C570.155 280.461 573.164 273.31 578.449 268.44C590.843 257.019 618.262 258.386 634.204 259.009C635.407 257.001 635.076 254.094 634.94 251.831C634.697 247.117 632.574 242.697 629.046 239.561C624.971 235.995 619.332 234.669 614.018 235.038C608.794 235.401 602.723 237.657 600.474 242.775C599.606 244.749 599.156 247.096 597.664 248.708C597.592 248.786 597.517 248.86 597.444 248.936C589.698 248.952 581.929 249.087 574.188 248.751C576.436 245.387 576.234 238.347 580.17 232.174C586.394 222.408 596.611 219.631 607.231 217.25ZM618.09 299.346C623.949 297.995 629.413 294.482 632.662 289.356C634.976 285.705 636.154 280.049 635.026 275.802C634.942 275.483 634.779 275.179 634.611 274.897C626.785 274.889 618.473 274.344 610.704 275.249C605.427 276.147 599.913 277.441 596.619 282.088C595.022 284.353 594.397 287.163 594.884 289.891C595.44 293.062 597.438 295.775 600.057 297.572C604.678 300.741 611.127 300.802 616.467 299.843C617.024 299.743 617.566 299.554 618.09 299.346Z"/>
	<path fill="#00474F" d="M791.599 182.719C799.36 182.195 807.312 182.546 815.095 182.549C815.289 182.867 815.461 183.183 815.595 183.532C816.581 186.101 816.361 228.266 815.227 230.907C817.382 229.494 819.206 227.448 821.095 225.696C828.217 219.088 837.384 216.554 846.989 216.938C855.877 217.294 864.997 220.855 871.071 227.491C876.227 233.123 878.457 240.379 879.739 247.759C881.513 257.972 880.53 269.396 880.506 279.788C880.479 291.663 880.853 303.646 880.38 315.502L880.252 315.946L855.263 315.945C855.312 315.863 855.363 315.783 855.409 315.7C856.753 313.318 856.322 266.525 855.974 259.46C855.848 256.919 855.548 254.36 854.88 251.9C853.652 247.381 850.98 243.306 846.836 240.989C842.191 238.393 836.072 238.187 831.034 239.642C813.476 244.714 815.853 263.985 815.895 278.293C815.92 286.939 815.826 295.593 815.961 304.238C816.008 307.276 816.747 313.212 815.245 315.74C815.195 315.825 815.141 315.907 815.088 315.991L791.467 315.915C791.581 315.725 791.665 315.607 791.742 315.407C792.715 312.888 792.388 184.461 791.599 182.719Z"/>
	<path fill="#00474F" d="M436.899 34.7486C445.234 33.4377 456.648 34.3827 465.279 34.3942C483.67 34.3362 502.062 34.3754 520.453 34.5118C522.312 37.8001 521.725 46.0286 521.076 49.672C520.806 51.1829 520.192 52.4938 519.413 53.8045C511.411 67.262 501.813 80.0509 493.095 93.0819C484.547 105.859 475.83 120.464 466.528 132.501C466.057 133.111 465.42 133.595 464.792 134.032C474.788 133.703 484.866 133.94 494.871 133.941C503.592 133.941 512.43 133.653 521.13 134.139C521.447 134.569 521.707 135.003 521.823 135.53C522.58 138.967 522.993 148.795 521.108 151.757C521.546 152.937 521.85 153.26 521.452 154.484C519.889 155.583 444.777 155.141 436.463 154.862C439.448 149.373 434.375 139.164 438.962 131.355C445.713 119.862 487.718 60.7976 488.64 56.1234C482.152 55.6421 475.51 55.9037 469.004 55.9087L436.095 55.943C436.136 55.8624 436.175 55.7808 436.217 55.7011C437.897 52.5563 437.252 38.7662 436.899 34.7486Z"/>
	<path fill="#00474F" d="M564.619 65.2495C576.154 64.5212 588.945 64.0191 599.284 70.0198C606.089 73.9692 610.425 80.5108 612.37 88.0539C613.25 91.4649 613.621 94.9882 613.806 98.4988C614.094 103.949 614.705 152.32 613.098 155.04C605.698 155.208 598.296 155.205 590.896 155.029C591.123 154.694 591.315 154.334 591.409 153.937C591.965 151.574 592.261 146.412 591.065 144.353C590.739 145.098 590.401 145.783 589.861 146.402C583.933 153.202 575.895 156.525 566.987 157.03C558.934 157.486 549.562 156.213 543.003 151.182C540.539 149.292 538.492 146.962 536.18 144.9C535.53 140.23 532.253 136.848 532.487 130.674C532.755 123.615 534.885 116.639 540.187 111.741C552.04 100.79 575.242 102.377 590.215 103.024C591.401 101.16 591.12 97.9854 590.898 95.8507C590.51 92.1223 588.558 88.7837 585.65 86.4388C581.537 83.1233 576.013 82.3114 570.883 82.8668C566.545 83.3365 561.576 85.1373 559.558 89.3325C558.701 91.1152 558.232 93.0906 556.942 94.631C556.877 94.7084 556.81 94.7838 556.744 94.8602C549.906 95.5933 542.383 94.9596 535.478 94.8667C535.528 94.7778 535.577 94.6882 535.628 94.6C537.752 90.931 537.052 86.1969 540.718 80.1515C546.067 71.3295 554.987 67.5983 564.619 65.2495ZM561.654 138.307C568.632 140.209 575.836 140.21 582.272 136.505C586.36 134.152 589.242 130.508 590.448 125.93C591.241 122.919 591.302 119.463 591.155 116.36C589.383 116.189 587.697 116.182 585.922 116.25C577.158 116.446 564.236 115.85 557.684 122.834C556.19 124.426 555.255 126.421 555.401 128.635C555.58 131.371 557.3 134.875 559.379 136.636C560.096 137.243 560.876 137.782 561.654 138.307Z"/>
	<path fill="#00474F" d="M714.505 217.25C724.528 216.234 737.044 216.635 746.57 220.013C754.926 222.977 760.66 227.907 764.441 235.895C765.803 238.771 768.03 243.803 766.905 246.982C764.189 249.07 747.879 247.955 743.65 247.933C743.657 247.824 743.667 247.714 743.671 247.605C743.741 245.388 741.901 242.179 740.416 240.601C736.649 236.598 730.127 235.146 724.834 235.061C719.463 234.975 712.567 236.273 708.611 240.225C707.313 241.522 706.411 243.206 706.429 245.077C706.559 257.833 733.338 258.037 742.371 260.012C749.904 261.659 757.809 264.279 763.411 269.779C768.569 274.842 771.043 281.605 771.052 288.784C771.061 295.822 768.201 302.246 763.222 307.183C754.685 315.646 741.138 319.034 729.375 318.949C720.588 319.048 712.193 318.609 703.686 316.223C692.944 313.21 683.707 306.373 680.999 295.134C680.379 292.559 680.487 289.001 679.142 286.75C679.091 286.666 679.037 286.583 678.985 286.499L702.918 286.48C705.7 289.145 705.212 293.361 709.041 296.421C715.234 301.368 725.479 301.74 732.971 300.826C736.883 300.348 742.344 298.688 744.809 295.378C746.183 293.533 746.552 291.275 746.161 289.042C745.578 285.703 743.55 283.262 740.611 281.691C736.762 279.635 732.182 279.046 727.929 278.338C716.36 276.411 702.405 275.391 692.519 268.576C687.259 264.95 683.786 259.803 682.645 253.501C681.327 246.227 682.444 238.032 686.745 231.908C693.266 222.622 703.836 219.143 714.505 217.25Z"/>
	<path fill="#00474F" d="M724.558 66.2497C731.856 65.0599 741.309 66.0093 748.813 66.0379C749.104 66.3099 749.357 66.623 749.589 66.9456C750.944 68.8242 769.996 122.32 771.729 129.03C771.914 129.746 771.837 130.521 771.725 131.243C772.139 130.789 772.554 130.288 772.783 129.712C775.133 123.812 793.347 68.6683 793.31 66.1511C797.329 65.846 815.658 65.0495 818.357 66.7562C818.371 66.9528 818.379 67.1498 818.381 67.3469C818.406 70.9646 797.56 126.454 795.32 128.74C795.402 129.058 795.478 129.415 795.452 129.744C795.186 133.144 781.082 169.307 778.747 173.891C777.001 177.319 774.86 180.547 772.113 183.255C761.851 193.369 748.624 192.086 735.409 191.953C735.45 191.882 735.494 191.813 735.533 191.742C736.82 189.442 736.461 175.411 735.651 172.829C738.884 172.606 742.185 172.468 745.391 171.999C749.626 171.378 754.493 169.669 757.066 166.02C758.339 164.214 759.93 160.431 759.525 158.246C760.786 154.128 727.589 79.4193 724.558 66.2497Z"/>
</svg>
